<svg xmlns="http://www.w3.org/2000/svg" viewBox="0 0 1700 1700" width="1700" height="1700"><g transform="translate(102.0 110.0) rotate(0.0 544.5 737.5) scale(0.9936756967363821 0.9935215658169307)"><svg width="1095.931" height="1484.618" viewBox="0 0 1095.931 1484.618"><path d="M629.485 1395.861s-84.255 55.928-125.803-3.448c0 0-12.452-63.433-20.455-107.242l117.905-5.213 30.166 53.603-1.812 62.299z" fill="#fff"/><path d="M557.178 1424.436c-23.304 0-42.095-9.508-55.135-28.144a2 2 0 0 1-.324-.762c-.125-.634-12.546-63.947-20.46-107.267a2 2 0 0 1 1.879-2.357l117.905-5.214a2.015 2.015 0 0 1 1.832 1.018l30.166 53.604c.178.316.267.676.256 1.039l-1.812 62.3a2 2 0 0 1-.893 1.607c-.872.579-21.653 14.248-47.942 20.815-8.983 2.245-17.494 3.36-25.471 3.36zm-51.616-30.093c16.697 23.585 42.273 31.28 76.025 22.875 22.704-5.654 41.728-17.098 45.93-19.739l1.765-60.688-29.291-52.048-114.385 5.058c7.577 41.322 18.88 99.055 19.956 104.542z" fill="#25242e"/><path d="m654.242 547.487-22.945 788.808-223.123 4.979c.392-59.071 23.279-563.761 27.87-673.646 5.504-131.747 218.198-120.141 218.198-120.141z" fill="#fff"/><path d="M408.174 1343.274a2 2 0 0 1-2-2.013c.295-44.542 13.207-338.5 21.75-533.019 2.788-63.471 4.99-113.604 6.122-140.697 1.216-29.107 12.566-53.613 33.736-72.838 31.934-28.998 81.001-40.832 116.54-45.652 38.387-5.207 69.717-3.583 70.029-3.564a2 2 0 0 1 1.89 2.056l-22.945 788.808a2 2 0 0 1-1.955 1.941l-223.123 4.979h-.045zm233.975-794.019c-32.479 0-122.982 4.187-171.683 48.419-20.345 18.478-31.253 42.041-32.423 70.036-1.132 27.099-3.334 77.233-6.122 140.707-8.42 191.711-21.083 480.024-21.726 530.811l219.159-4.891 22.832-784.932a310.19 310.19 0 0 0-10.037-.15z" fill="#25242e"/><path d="M479.461 1341.684h-.025a2.002 2.002 0 0 1-1.976-2.024l6.855-564.582c.014-1.104.961-1.972 2.024-1.976a2.002 2.002 0 0 1 1.976 2.024l-6.855 564.582a2 2 0 0 1-2 1.976zm155.129 43.915 3.622 16.499s51.556 19.754 60.476 23.073c25.659 9.548 36.42 17.043 36.417 38.041h-67.689l-175.378-.177c-.544-20.873 1.132-40.668 8.139-57.881 0 0-6.129-8.078-10.957-14.079-5.855-7.277 6.78-16.277 12.805-5.745 1.776 3.104 3.96 6.955 5.768 10.152 2.281 4.033 6.161 6.94 10.714 8.034l28.638 6.885a48.846 48.846 0 0 0 27.521-1.38l32.446-11.346-2.335-9.018c-1.479-5.715 2.666-11.351 8.639-11.746l8.684-.575c5.919-.392 11.234 3.551 12.488 9.263z" fill="#25242e"/><path d="M735.106 1465.213h-67.689l-175.38-.177a2 2 0 0 1-1.998-1.948c-.625-24.018 1.875-42.372 7.861-57.623-1.732-2.271-6.421-8.391-10.238-13.135-2.058-2.558-2.516-5.633-1.256-8.437 1.366-3.04 4.58-5.194 7.998-5.36 3.729-.198 7.143 1.934 9.358 5.806 1.777 3.107 3.963 6.961 5.773 10.159 1.999 3.535 5.44 6.114 9.441 7.076l28.638 6.884a46.718 46.718 0 0 0 26.394-1.323l30.709-10.739-1.873-7.236a11.3 11.3 0 0 1 1.792-9.475 11.576 11.576 0 0 1 8.65-4.769l8.684-.575c6.872-.427 13.119 4.201 14.574 10.83l3.391 15.445c7.252 2.778 51.332 19.66 59.452 22.682 26.085 9.706 37.722 17.773 37.719 39.915a2 2 0 0 1-2 2zm-241.112-4.175 173.425.175h65.654c-.625-18.092-10.066-24.858-35.081-34.167-8.827-3.284-59.979-22.882-60.495-23.08a2 2 0 0 1-1.238-1.438l-3.623-16.499c-1.034-4.712-5.507-8.041-10.402-7.695l-8.684.575a7.581 7.581 0 0 0-5.673 3.118 7.315 7.315 0 0 0-1.162 6.131l2.334 9.018a2 2 0 0 1-1.276 2.389l-32.446 11.347a50.702 50.702 0 0 1-28.649 1.437l-28.638-6.884c-5.075-1.22-9.444-4.499-11.987-8.995a2789.43 2789.43 0 0 0-5.763-10.143c-1.462-2.557-3.486-3.901-5.691-3.797-1.923.094-3.792 1.329-4.544 3.005-.446.992-.682 2.542.724 4.289 4.791 5.954 10.931 14.043 10.993 14.124a2 2 0 0 1 .259 1.963c-5.913 14.525-8.477 32.084-8.037 55.129z" fill="#25242e"/><path d="M689.148 1438.268c-1.389 0-2.794-.16-4.191-.491l-58.667-13.93c-8.679-2.061-15.718-8.563-18.371-16.971l-2.713-8.599a2 2 0 1 1 3.814-1.203l2.713 8.599c2.231 7.072 8.163 12.544 15.48 14.281l58.667 13.93c6.494 1.544 13.233-1.669 16.025-7.636a1.999 1.999 0 1 1 3.623 1.695c-2.989 6.388-9.484 10.324-16.381 10.324zm-159.516 13.493c-11.178 0-20.271-8.972-20.271-20s9.094-20 20.271-20 20.271 8.972 20.271 20-9.094 20-20.271 20zm0-36c-8.972 0-16.271 7.178-16.271 16s7.299 16 16.271 16 16.271-7.178 16.271-16-7.299-16-16.271-16zm204.886 66.857h-67.101l-173.785-.061c-5.422-.423-9.47-5.097-9.04-10.439.43-5.342 5.174-9.329 10.597-8.906h239.329c5.439 0 9.849 4.344 9.849 9.703 0 5.359-4.41 9.703-9.849 9.703z" fill="#fff"/><path d="M734.518 1484.618h-67.101l-173.786-.061c-.052 0-.104-.002-.155-.006a11.81 11.81 0 0 1-8.127-4.125 11.542 11.542 0 0 1-2.75-8.469c.515-6.404 6.183-11.198 12.665-10.745h239.255c6.534 0 11.849 5.25 11.849 11.703s-5.315 11.702-11.849 11.702zm-240.804-4.061 173.703.061h67.101c4.328 0 7.849-3.455 7.849-7.702s-3.521-7.703-7.849-7.703h-239.33c-.052 0-.104-.002-.156-.006-4.308-.338-8.106 2.834-8.447 7.071a7.568 7.568 0 0 0 1.806 5.552 7.838 7.838 0 0 0 5.322 2.728z" fill="#25242e"/><path d="m329.42 418.692 20.108 77.34 6.535-86.915z" fill="#dda6ff"/><path d="M349.526 498.033c-.889 0-1.7-.598-1.934-1.498l-20.107-77.34a1.999 1.999 0 1 1 3.871-1.005l20.107 77.34a1.999 1.999 0 0 1-1.937 2.503z" fill="#dda6ff"/><path d="M98.346 1246.204c-7.74 36.743 192.076 122.184 209.438 95.07 0 0 40.596-178.071-47.489-199.518S98.347 1246.204 98.347 1246.204z" fill="#fff"/><path d="M291.827 1348.514c-20.639 0-54.644-10.633-85.489-23.261-56.172-22.997-114.539-57.672-109.949-79.461.044-.211.123-.414.232-.6.186-.317 18.941-32.037 48.27-60.686 17.28-16.88 34.813-29.43 52.11-37.3 21.775-9.907 43.228-12.395 63.767-7.395 20.732 5.048 36.189 18.966 45.942 41.368 7.697 17.68 11.856 40.673 12.361 68.34.856 46.899-9.235 91.75-9.336 92.197a2.025 2.025 0 0 1-.266.634c-2.763 4.315-9.043 6.162-17.641 6.162zm-191.583-101.588c-2.77 16.317 43.29 48.293 107.609 74.625 50.929 20.85 91.06 28.567 98.061 18.916.953-4.344 9.972-46.74 9.156-90.937-.501-27.126-4.552-49.594-12.04-66.779-9.228-21.179-23.766-34.317-43.209-39.052-44.589-10.855-85.557 17.723-112.075 43.61-27.472 26.818-45.554 56.375-47.501 59.616z" fill="#25242e"/><path d="m206.276 1326.235 35.671-56.412c-27.306-17.258-118.759-49.429-135.408-48.001 0 0-14.483 42.424-30.595 89.283-17.014 49.485 145.541 15.246 130.332 15.13z" fill="#fff"/><path d="M122.954 1339.879c-17.589 0-34.393-2.108-43.346-8.815-6.576-4.927-8.498-12.053-5.556-20.608a48325.88 48325.88 0 0 0 30.593-89.279 2.003 2.003 0 0 1 1.722-1.347c17.34-1.456 109.294 31.017 136.647 48.304a1.998 1.998 0 0 1 .622 2.76l-34.558 54.652c.04.087.076.18.107.278.213.68.107 1.725-.894 2.434-2.896 2.051-29.776 7.488-56.166 10.063-9.131.891-19.277 1.559-29.172 1.559zm-14.968-116.107c-2.561 7.497-15.784 46.2-30.151 87.984-2.286 6.649-1.14 11.745 3.503 15.58 9.539 7.879 34.018 10.418 68.928 7.144 25.202-2.361 47.731-6.978 54.125-8.915.049-.138.114-.271.194-.398l34.587-54.698c-27.573-16.443-112.188-46.544-131.186-46.696z" fill="#25242e"/><path d="m95.464 1464.636 114.469-88.326c1.493-11.66 1.217-32.048-3.657-50.074l-22.865 5.11a55.295 55.295 0 0 1-22.437.349l-29.592-5.653 4.364-10.458c2.677-6.416-.598-13.746-7.152-16.063-10.776-3.81-23.638-6.786-34.994-8.173-9.893-1.208-19.226 4.832-22.073 14.383l-36.936 123.928c-11.363 2.014-29.305 12.938-26.607 34.946l28.011.076c5.384-.01 59.469-.045 59.469-.045z" fill="#25242e"/><path d="m35.998 1466.681-28.02-.076a2.001 2.001 0 0 1-1.98-1.757c-2.72-22.183 14.647-34.168 27.02-36.914L69.61 1305.16c3.125-10.488 13.315-17.136 24.232-15.797 11.668 1.425 24.578 4.44 35.418 8.272 3.702 1.309 6.616 4.003 8.207 7.585a13.951 13.951 0 0 1 .125 11.135l-3.416 8.185 27.173 5.19a52.949 52.949 0 0 0 21.626-.336l22.865-5.11a2.004 2.004 0 0 1 2.367 1.43c4.792 17.719 5.315 38.307 3.71 50.851a2 2 0 0 1-.762 1.329L96.686 1466.22c-.35.271-.779.417-1.22.417 0 0-54.083.035-59.467.045zm-26.201-4.071 26.203.071c5.019-.009 52.513-.04 58.781-.045l113.268-87.399c1.378-11.77.881-30.259-3.222-46.628l-20.98 4.689a56.963 56.963 0 0 1-23.249.361l-29.591-5.652a2.002 2.002 0 0 1-1.471-2.736l4.364-10.458a9.982 9.982 0 0 0-.09-7.971 10.037 10.037 0 0 0-5.884-5.437c-10.578-3.739-23.178-6.683-34.57-8.073-8.98-1.102-17.348 4.358-19.914 12.969l-36.936 123.928a2 2 0 0 1-1.567 1.398c-11.071 1.963-26.532 11.808-25.142 30.981z" fill="#25242e"/><path d="m218.795 1393.26-100.648 75.16a71.415 71.415 0 0 1-42.744 14.194l-64.385-.014a9 9 0 0 1-9.017-8.983 9 9 0 0 1 8.983-9.017l60.115.026a71.41 71.41 0 0 0 43.656-14.874l95.178-73.441c4.834-2.527 10.799-.506 13.101 4.439a9.563 9.563 0 0 1-4.239 12.511z" fill="#fff"/><path d="M75.416 1484.613h-.014l-64.385-.014h-.02C4.944 1484.6.011 1479.679 0 1473.62a10.928 10.928 0 0 1 3.207-7.784 10.924 10.924 0 0 1 7.772-3.236l60.119.025h.029c15.264 0 30.321-5.134 42.405-14.457l95.178-73.441c.093-.072.191-.135.295-.189a11.452 11.452 0 0 1 9.069-.704 11.458 11.458 0 0 1 6.772 6.072 11.544 11.544 0 0 1-4.977 15.048l-100.526 75.069c-12.6 9.409-28.201 14.591-43.928 14.591zm-64.402-4.014 64.389.014h.013c14.871 0 29.62-4.898 41.534-13.796l100.648-75.16c.085-.063.176-.12.27-.17a7.553 7.553 0 0 0 3.353-9.895 7.5 7.5 0 0 0-4.43-3.972 7.5 7.5 0 0 0-5.784.386l-95.031 73.327c-12.779 9.861-28.706 15.291-44.848 15.291h-.031l-60.115-.025a6.943 6.943 0 0 0-4.941 2.06A6.952 6.952 0 0 0 4 1473.612c.007 3.855 3.146 6.987 7.001 6.987z" fill="#25242e"/><path d="M67.66 1431.701h-.108l-32.157-.111a2 2 0 0 1 .007-4h.007l32.157.111h.094a26.985 26.985 0 0 0 24.944-16.575l36.939-85.874a2 2 0 1 1 3.675 1.58l-36.933 85.859a30.97 30.97 0 0 1-28.625 19.01zm115.615-51.83c-9.149 0-16.593-8.972-16.593-20s7.443-20 16.593-20 16.593 8.972 16.593 20-7.444 20-16.593 20zm0-36c-6.944 0-12.593 7.178-12.593 16s5.649 16 12.593 16 12.593-7.178 12.593-16-5.649-16-12.593-16zM316.66 596.512 98.346 1246.204c7.267-21.627 220.551 68.355 209.438 95.07 75.83-175.007 171.597-552.961 205.578-657.561 17.848-199.915-196.701-87.201-196.701-87.201z" fill="#fff"/><path d="M307.782 1343.274a2 2 0 0 1-1.846-2.769c.992-2.385-1.034-5.669-2.908-8.004-10.955-13.649-49.631-36.055-98.531-57.079-47.48-20.414-88.097-32.578-101.072-30.271-1.269.226-2.852.702-3.183 1.689a2 2 0 0 1-3.792-1.273l218.314-649.691a2.001 2.001 0 0 1 3.792 1.273l-216.466 644.19c.206-.045.417-.087.634-.126 16.875-3.006 66.225 14.57 103.353 30.534 39.358 16.922 86.314 41.11 100.071 58.25 1.09 1.357 1.96 2.666 2.612 3.923 53.054-125.062 114.326-342.227 159.276-501.544 18.724-66.36 33.513-118.776 43.422-149.281a2 2 0 0 1 3.805 1.237c-9.886 30.43-24.666 82.813-43.377 149.132-45.778 162.246-108.472 384.451-162.268 508.605a2.003 2.003 0 0 1-1.836 1.206z" fill="#25242e"/><path d="M734.077 507.189c-8.758 11.653-16.09 17.958-18.876 16.596-82.399-120.313-27.609-128.36 62.87-165.376 7.793 58.935-22.423 120.079-43.994 148.78" fill="#fff"/><path d="M716.004 525.954c-.6 0-1.163-.119-1.682-.373a1.99 1.99 0 0 1-.771-.667c-33.908-49.51-45.897-81.831-38.874-104.8 7.948-25.991 38.679-38.15 81.212-54.98 6.897-2.729 14.028-5.551 21.424-8.577a2.004 2.004 0 0 1 1.761.121c.536.312.898.854.979 1.469 8.095 61.218-24.087 123.244-44.378 150.243-6.222 8.279-14.381 17.564-19.671 17.564zm60.4-164.707c-6.553 2.663-12.892 5.172-19.043 7.605-41.494 16.419-71.474 28.282-78.859 52.432-6.603 21.593 5.083 52.667 37.884 100.69 1.7-.313 7.267-4.246 16.092-15.987 19.641-26.134 50.631-85.642 43.927-144.74z" fill="#25242e"/><path d="M916.646 291.388 801.339 374.44l-106.83-73.606c-73.524-27.478-145.257 46.473-111.088 79.23 32.649 30.336 61.105 51.078 126.737 97.88 28.327 20.2 97.707 62.694 168.134 7.316 75.746-59.561 119.013-99.001 119.013-99.001l-80.658-94.87z" fill="#fff"/><path d="M803.679 514.632c-8.412 0-16.965-.909-25.652-2.73-22.586-4.737-45.166-15.312-69.03-32.329-63.871-45.545-93.517-66.99-126.938-98.043-11.977-11.481-12.519-28.82-1.471-46.402 9.673-15.395 26.435-28.454 45.987-35.831 15.786-5.956 40.507-10.849 68.634-.335.154.057.299.133.435.227l105.67 72.807 114.164-82.229a2 2 0 0 1 2.338 3.246l-115.307 83.053a2 2 0 0 1-2.304.023l-106.626-73.465c-49.132-18.226-93.656 9.253-109.604 34.633-10.11 16.091-9.808 31.168.83 41.366 33.215 30.861 62.79 52.253 126.514 97.695 60.079 42.838 117.389 45.389 165.736 7.371 74.823-58.836 118.47-98.513 118.902-98.907a2 2 0 0 1 2.694 2.957c-.433.395-44.188 40.17-119.124 99.095-23.525 18.498-48.95 27.799-75.849 27.8z" fill="#25242e"/><path d="M783.94 389.962a2 2 0 0 1-1.229-3.579l17.401-13.521a2 2 0 1 1 2.454 3.159l-17.401 13.521a1.995 1.995 0 0 1-1.226.421z" fill="#25242e"/><path d="m694.509 300.834 96.864 66.739c-48.143 4.395-86.836 148.152-76.172 156.211L578.166 420.223l116.343-119.39z" fill="#fff"/><path d="M715.199 525.784c-.42 0-.843-.132-1.204-.404L576.96 421.819a1.997 1.997 0 0 1-.226-2.991l116.343-119.39a1.999 1.999 0 0 1 2.567-.251l96.864 66.739a2 2 0 0 1-1.008 3.643c-12.038.765-25.387 12.987-38.604 35.347-10.75 18.187-21.252 43.055-28.815 68.228-9.484 31.568-9.68 47.512-7.678 49.042l.004.003a2 2 0 0 1-1.207 3.596zM581.181 419.995l130.329 98.493c-.921-13.329 6.834-40.152 8.74-46.496 7.651-25.469 18.295-50.659 29.202-69.111 12.378-20.941 24.711-33.17 36.736-36.451l-91.425-62.991L581.18 419.996z" fill="#25242e"/><path d="M573.887 114.38c7.678-44.37-8.352-79.757-56.679-84.435-50.003-4.84-75.659 27.156-80.201 71.187-9.713-16.166-29.319-5.939-30.854 9.984-1.136 11.781 10.265 25.176 30.196 20.122 9.587 46.606 48.152 59.06 85.02 59.636 42.793.668 75.586-40.99 52.517-76.494z" fill="#fff"/><path d="M522.37 192.883c-.344 0-.686-.003-1.031-.008-21.63-.338-39.703-4.654-53.717-12.829-17.013-9.925-28.04-25.531-32.799-46.411-9.125 1.818-17.324.063-23.258-5.029-5.266-4.521-8.034-11.13-7.402-17.682.905-9.387 7.776-17.606 16.339-19.543 5.694-1.288 11.006.388 15.116 4.636 2.994-21.113 10.912-38.409 23.045-50.236 14.559-14.191 34.321-20.19 58.737-17.825 21.262 2.058 37.275 9.963 47.596 23.497 11.515 15.101 15.31 36.701 10.991 62.503 9.458 15.033 9.99 32.464 1.429 47.946-10.451 18.899-31.977 30.98-55.047 30.981zm-86.02-63.645a2 2 0 0 1 1.959 1.597c7.77 37.772 35.727 57.3 83.092 58.04 21.987.36 42.615-11.004 52.515-28.909 7.949-14.375 7.327-30.593-1.707-44.495a2.004 2.004 0 0 1-.293-1.431c4.329-25.017.836-45.82-10.1-60.162-9.618-12.613-24.691-19.995-44.801-21.942-44.585-4.313-73.024 20.981-78.019 69.401a2 2 0 0 1-3.704.825c-3.42-5.691-8.357-8.138-13.908-6.88-6.928 1.567-12.497 8.307-13.241 16.025-.507 5.258 1.746 10.589 6.026 14.263 5.353 4.594 13.056 5.918 21.688 3.729.162-.041.327-.062.492-.062z" fill="#25242e"/><path d="M417.482 118.442a2 2 0 0 1-1.192-3.608l12.454-9.228a2 2 0 0 1 2.381 3.215l-12.454 9.228a1.992 1.992 0 0 1-1.189.393z" fill="#25242e"/><path d="M427.818 119.442c-.604 0-1.2-.272-1.594-.79l-9.254-12.174a2 2 0 1 1 3.185-2.42l9.254 12.174a2 2 0 0 1-1.591 3.21z" fill="#25242e"/><path d="M511.696 137.684c.122-11.507 24.733-10.954 23.605.519 1.891 4.87-2.07 12.181-10.773 12.593-8.389.398-16.292-7.145-12.832-13.113z" fill="#dda6ff"/><g fill="#25242e"><path d="M525.819 141.011c-12.23 0-23.769-2.887-29.314-6.922a2 2 0 0 1 2.354-3.234c6.543 4.761 26.069 8.669 43.008 4.217a2 2 0 0 1 1.016 3.869c-5.476 1.439-11.347 2.07-17.063 2.07z"/><circle cx="496.795" cy="14.068" r="14.065"/><circle cx="471.549" cy="22.691" r="14.065"/><circle cx="450.968" cy="36.758" r="14.065"/><circle cx="441.884" cy="59.185" r="14.065"/><circle cx="521.663" cy="15.92" r="14.065"/><circle cx="547.137" cy="23.84" r="14.065"/><circle cx="567.43" cy="40.728" r="14.065"/><circle cx="575.272" cy="64.893" r="14.065"/><circle cx="551.449" cy="54.796" r="14.065"/><circle cx="523.314" cy="54.385" r="14.065"/><circle cx="498.242" cy="55.764" r="14.065"/><circle cx="473.263" cy="62.595" r="14.065"/><path d="M552.89 28.135c11.077 5.78 22.389 9.129 10.888 21.669-16.569 7.222-26.804 14.178-42.115 4.581-15.276-7.742-20.009-2.844-34.333 2.658-8.368 8.011-8.456-1.498-14.068 4.846-5.807 6.564-13.005 13.001-14.068 27.784-1.714 23.859-4.58 32.374-12.582 32.361-6.756-.011-10.398-8.054-9.605-20.902.64-11.344 2.811-25.903 3.576-32.685-9.215-36.303 35.454-49.47 51.54-52.527 19.399-4.029 43.975 4.164 60.766 12.215z"/><path d="M446.631 124.034h-.021c-2.702-.005-5.126-1.069-7.011-3.078-3.571-3.805-5.158-10.702-4.587-19.947.474-8.396 1.782-18.562 2.738-25.984.322-2.501.606-4.705.807-6.444-2.485-10.126-1.14-19.349 4.001-27.419 12.007-18.85 40.688-25.59 49.193-27.206 22.792-4.734 50.955 7.078 62.004 12.376l.061.03c1.211.633 2.426 1.235 3.612 1.824 6.209 3.083 12.075 5.995 13.032 11.141.648 3.489-1.006 7.248-5.208 11.829-.189.206-.419.37-.675.481-2.008.876-3.922 1.747-5.764 2.585-13.303 6.057-23.817 10.84-38.134 1.907-11.812-5.967-16.576-3.943-26.044.081-1.842.783-3.918 1.665-6.217 2.558-4.759 4.433-7.525 3.995-10.161 3.095-1.322-.453-1.767-.604-3.496 1.352-.581.656-1.176 1.313-1.777 1.975-5.352 5.899-10.886 11.999-11.794 24.628-1.63 22.69-4.331 34.217-14.559 34.218zm56.524-107.181c-3.624 0-7.193.312-10.625 1.024-5.803 1.104-35.167 7.484-46.6 25.433-4.585 7.198-5.732 15.489-3.408 24.645.06.234.076.477.049.717a485.906 485.906 0 0 1-.855 6.863c-.948 7.362-2.246 17.446-2.712 25.709-.487 7.896.792 14.079 3.511 16.975 1.144 1.219 2.485 1.813 4.101 1.815h.015c5.434 0 8.728-4.872 10.57-30.505 1.006-14.007 7.283-20.925 12.821-27.028.59-.65 1.173-1.293 1.743-1.938 3.23-3.65 5.526-3.258 7.786-2.486 1.504.515 2.805.959 6.396-2.479.192-.184.418-.327.666-.423 2.382-.915 4.547-1.835 6.458-2.646 9.957-4.232 15.966-6.785 29.497.071.054.027.106.058.158.09 12.534 7.856 21.246 3.892 34.431-2.109 1.739-.791 3.542-1.612 5.428-2.438 2.994-3.338 4.32-6.057 3.943-8.085-.592-3.183-5.588-5.663-10.878-8.289-1.2-.596-2.428-1.206-3.654-1.845-9.003-4.314-29.648-13.07-48.839-13.07z"/><path d="M490.579 106.173a2 2 0 0 1-1.872-2.706c3.444-9.139 12.72-17.114 24.943-13.041a2 2 0 0 1 1.265 2.53 2.006 2.006 0 0 1-2.53 1.265c-9.769-3.26-17.051 3.004-19.935 10.656a2 2 0 0 1-1.872 1.296z"/><path d="M510.787 102.53c-.9 7.598-4.318 13.44-7.635 13.047s-5.276-6.871-4.377-14.469c.429-3.62 1.429-6.842 2.718-9.18.217-.393 8.237-.63 8.446-.057.975 2.674 1.34 6.498.847 10.659zm25.13 7.241a2 2 0 0 1-1.872-2.706c3.444-9.14 12.72-17.117 24.943-13.041a2 2 0 0 1 1.265 2.53 2.007 2.007 0 0 1-2.53 1.265c-9.771-3.259-17.051 3.003-19.935 10.656a2 2 0 0 1-1.872 1.296z"/><path d="M556.126 106.129c-.9 7.598-4.318 13.44-7.635 13.047s-5.276-6.871-4.377-14.469c.429-3.62 1.429-6.842 2.718-9.18.217-.393 8.237-.63 8.446-.057.975 2.674 1.34 6.498.847 10.659z"/></g><path d="m322.953 509.612-82.824-81.364 93.675-60.798c49.615-60.821 2.588-152.488-39.4-130.636-39.208 21.19-76.53 48.068-142.111 94.941-57.782 41.299-88.279 106.749-26.615 171.743 66.322 69.903 154.17 136.246 154.17 136.246l43.103-130.133z" fill="#fff"/><path d="M279.849 641.745a2 2 0 0 1-1.205-.404c-.88-.664-88.74-67.243-154.416-136.465-25.401-26.773-36.872-55.046-34.093-84.033 3.127-32.62 24.789-64.836 60.995-90.714l5.517-3.943c61.488-43.953 98.602-70.483 136.807-91.131 14.717-7.661 31.313-2.61 44.42 13.494 11.478 14.101 18.469 34.166 19.183 55.052.576 16.861-2.721 41.846-21.703 65.114-.131.16-.287.3-.461.413l-91.584 59.441 81.045 79.616a2 2 0 0 1 .497 2.056l-43.104 130.133a1.998 1.998 0 0 1-1.898 1.371zm27.673-406.246c-4.117 0-8.216 1.019-12.194 3.09-37.957 20.514-74.994 46.988-136.355 90.851l-5.517 3.943c-35.25 25.195-56.324 56.391-59.339 87.842-2.664 27.784 8.443 55.002 33.012 80.897 59.616 62.836 137.62 123.52 151.703 134.33l41.83-126.286-81.935-80.49a2.002 2.002 0 0 1 .313-3.105l93.412-60.627c32.979-40.682 21.236-91.632 2.32-114.871-8.344-10.251-17.842-15.574-27.25-15.574z" fill="#25242e"/><path d="m146.222 336.431 135.802 132.78 63.409-48.987c31.139-65.181-9.033-124.686-82.71-164.88z" fill="#fff"/><path d="M282.025 471.211a1.998 1.998 0 0 1-1.399-.57L144.824 337.862a2 2 0 0 1 .197-3.029c35.264-26.496 73.408-53.046 116.611-81.165a2 2 0 0 1 2.049-.08c38.255 20.87 66.423 46.412 81.458 73.865 16.597 30.306 17.303 61.809 2.1 93.633a2.008 2.008 0 0 1-.582.721l-63.409 48.987a1.998 1.998 0 0 1-1.222.417zM149.288 336.632l132.891 129.933 61.654-47.631c14.409-30.453 13.667-60.581-2.202-89.56-14.53-26.531-41.769-51.307-78.819-71.701-41.956 27.334-79.126 53.187-113.524 78.959z" fill="#25242e"/><path d="m646.211 374.44 48.298-73.606c-.045-.229-.272-.387-.659-.481-40.118-29.53-78.646-49.485-119.195-62.681-11.766-3.829-35.613 82.411-47.807 79.652-36.623-8.287-75.353-104.451-113.678-105.238-41.176-.846-96.194 13.777-118.764 24.729-10.371 5.032-31.682 18.53-31.682 18.53 59.358 43.092 82.02 110.025 82.71 164.88-.512 45.294-6.546 81.238-7.012 92.401-.766 18.383-62.184 65.386-26.042 97.557 0 0 276.305-47.64 341.863-62.694 48.42-38.442-4.78-87.434-4.789-101.987-.005-8.988-1.84-44.907-3.242-71.06z" fill="#dda6ff"/><path d="M312.379 612.182c-.486 0-.96-.178-1.33-.506-26.112-23.244-4.126-53.563 11.927-75.701 6.804-9.384 13.231-18.247 13.447-23.433.14-3.354.746-8.671 1.584-16.028 2.017-17.697 5.065-44.44 5.426-76.313-.826-65.573-31.438-126.615-81.885-163.239a1.998 1.998 0 0 1 .105-3.308c.875-.554 21.526-13.615 31.879-18.64 22.131-10.739 77.494-25.783 119.678-24.93 21.172.436 41.994 28.022 62.13 54.702 17.376 23.022 35.344 46.828 51.949 50.585.426.108 2.882.032 8.752-10.807 4.089-7.551 8.628-18.061 13.018-28.224 11.529-26.692 18.958-42.935 26.215-40.571 41.168 13.396 80.261 33.933 119.497 62.776 1.285.485 1.617 1.471 1.702 1.903a2 2 0 0 1-.291 1.481l-47.938 73.058c1.47 27.445 3.205 61.682 3.21 70.51.002 3.202 3.549 9.268 7.656 16.29 12.605 21.555 33.702 57.631-3.623 87.265a1.99 1.99 0 0 1-.796.383c-64.861 14.894-339.208 62.239-341.971 62.716-.113.02-.227.029-.34.029zm-46.105-356.705c26.751 20.024 47.475 45.939 61.625 77.068 12.4 27.281 19.155 57.591 19.534 87.653-.363 32.124-3.425 58.99-5.451 76.768-.798 7.002-1.428 12.531-1.563 15.742-.266 6.392-6.417 14.875-14.205 25.614-15.837 21.84-35.507 48.966-13.212 69.723 17.973-3.104 276.763-47.873 340.349-62.405 34.124-27.419 14.985-60.148 2.306-81.831-4.761-8.141-8.201-14.023-8.203-18.308-.005-8.811-1.765-43.448-3.239-70.953a2.001 2.001 0 0 1 .325-1.205l47.256-72.019c-38.684-28.353-77.215-48.557-117.759-61.751-.242-.078-2.51-.455-8.351 10.286-4.041 7.433-8.572 17.923-12.955 28.068-11.539 26.716-18.981 43-26.325 41.347-18.032-4.08-35.629-27.395-54.258-52.078-19.561-25.917-39.788-52.717-59.02-53.111-41.567-.89-96.072 13.961-117.85 24.529-8.074 3.917-23.092 13.173-29.004 16.862z" fill="#dda6ff"/><path d="M455.673 214.777c5.577 8.25 65.692 102.546 65.692 102.546s28.574-77.217 32.783-85.712c-32.989-8.572-65.823-14.344-98.475-16.835z" fill="#fff"/><path d="M554.15 233.611a2.03 2.03 0 0 1-.504-.064c-33.588-8.727-66.602-14.371-98.124-16.776a2 2 0 0 1 .304-3.988c31.758 2.423 65.008 8.106 98.825 16.894a2 2 0 0 1-.501 3.935z" fill="#25242e"/><path d="M455.673 214.777c5.577 8.249 64.355 76.611 64.355 76.611s29.911-51.282 34.12-59.776 44.699 7.846 41.888 13.726c-5.514 11.531-72.722 109.78-72.722 109.78S404.086 218.209 400.449 212.167c-5.857-9.73 49.664-5.615 55.225 2.611z" fill="#dda6ff"/><path d="M523.314 357.117a1.998 1.998 0 0 1-1.508-.687c-4.873-5.596-119.385-137.11-123.07-143.233-1.36-2.26-.767-4.582 1.549-6.061 4.951-3.16 18.569-3.052 29.665-1.895 5.474.57 23.627 2.863 27.38 8.415 4.898 7.244 52.4 62.664 62.384 74.296 5.981-10.274 29.034-49.949 32.642-57.229 4.15-8.375 26.738.282 34.325 3.975 8.967 4.365 12.721 8.234 11.159 11.501-5.517 11.538-70.128 106.03-72.875 110.047a2 2 0 0 1-1.651.871zM402.018 210.86c.017.019.05.117.145.274 2.861 4.754 86.667 101.327 120.96 140.717 9.795-14.346 65.573-96.173 71.025-107.205-.98-2.904-17.352-11.489-30.49-13.196-4.99-.649-7.277.16-7.718 1.049-4.191 8.458-32.962 57.8-34.185 59.896a1.999 1.999 0 0 1-3.244.296c-2.403-2.795-58.917-68.544-64.495-76.794-2.832-4.188-26.702-8.25-42.571-7.236-7.835.498-9.271 1.998-9.429 2.199z" fill="#dda6ff"/><path d="M307.782 1343.274a2 2 0 0 1-1.846-2.769c2.994-7.196-18.993-26.389-74.862-53.046a701.812 701.812 0 0 0-9.888-4.624 1.999 1.999 0 0 1-.984-2.651 1.997 1.997 0 0 1 2.651-.985 709.632 709.632 0 0 1 9.943 4.651c31.486 15.022 83.336 42.559 76.833 58.192a2 2 0 0 1-1.848 1.232zm215.532-986.157a1.998 1.998 0 0 1-1.508-.687c-4.873-5.596-119.385-137.11-123.07-143.233a2 2 0 1 1 3.427-2.062c2.861 4.754 86.667 101.327 120.96 140.717 9.848-14.423 66.172-97.052 71.109-107.377a2 2 0 1 1 3.608 1.725c-5.517 11.538-70.128 106.03-72.875 110.047a2 2 0 0 1-1.651.871z" fill="#25242e"/><path d="M418.163 235.518a2 2 0 0 1-.292-3.978l46.867-6.97a1.996 1.996 0 0 1 2.272 1.685 1.999 1.999 0 0 1-1.684 2.272l-46.867 6.97c-.1.015-.199.021-.297.021zM260.39 1302.142a2 2 0 0 1-1.885-2.67l178.276-502.3a2.001 2.001 0 0 1 3.77 1.338l-178.276 502.3a2.002 2.002 0 0 1-1.885 1.332z" fill="#25242e"/><path d="M443.358 784.602a2 2 0 0 1-1.883-2.675l16.34-45.653a2 2 0 1 1 3.766 1.348l-16.34 45.653a2 2 0 0 1-1.883 1.327z" fill="#fff"/><path d="M447.062 269.173a2 2 0 0 1-.973-3.748l35.493-19.715a2 2 0 0 1 1.943 3.496l-35.493 19.715a1.99 1.99 0 0 1-.969.252zm36.836 42.58a2.002 2.002 0 0 1-1.831-2.804l17.55-40.063a2 2 0 1 1 3.664 1.606l-17.55 40.063a2.002 2.002 0 0 1-1.833 1.198zm39.414 45.364a2 2 0 0 1-1.996-1.897l-3.286-63.729a2 2 0 0 1 1.895-2.1 1.99 1.99 0 0 1 2.101 1.895l3.286 63.729a2 2 0 0 1-1.999 2.103zm36.229-53.441c-.57 0-1.136-.242-1.531-.712l-26.918-31.986a2 2 0 1 1 3.061-2.576l26.918 31.986a2 2 0 0 1-1.53 3.288zm22.923-34.503c-.355 0-.716-.095-1.042-.294l-35.833-21.916a2.001 2.001 0 0 1 2.087-3.412l35.833 21.916a2.001 2.001 0 0 1-1.045 3.706z" fill="#25242e"/><path d="m578.166 562.696-279 85.783 13.213-38.297z" fill="#dda6ff"/><path d="M299.166 650.479a2 2 0 0 1-1.891-2.652l13.213-38.298a1.996 1.996 0 0 1 1.539-1.316l265.787-47.486a2.001 2.001 0 0 1 .939 3.881l-279 85.784a2.015 2.015 0 0 1-.588.088zm14.721-38.535-11.546 33.467 243.808-74.964z" fill="#dda6ff"/><path d="M312.377 612.182a2 2 0 0 1-.35-3.968l283.796-50.902a2 2 0 1 1 .706 3.937l-283.796 50.902a2.044 2.044 0 0 1-.355.031zm97.298 432.275a2.002 2.002 0 0 1-1.923-2.556l106.657-369.799a2.003 2.003 0 0 1 1.193-1.308l61.835-24.178a2 2 0 1 1 1.457 3.725l-60.916 23.818-106.383 368.851a2.003 2.003 0 0 1-1.921 1.446z" fill="#25242e"/><path d="M1026.245 235.636s-41.107-4.66-54.113 6.542c-21.123 18.193-69.248 59.122-69.248 59.122 6.417 43.95 35.071 75.484 94.421 84.957l53.293-39.614-24.353-111.008z" fill="#fff"/><path d="M995.422 389.965a1.998 1.998 0 0 1-1.343-3.482l1.883-1.706c.048-.043.098-.084.149-.123l52.255-38.843-23.765-108.328c-7.255-.674-40.281-3.162-51.166 6.212-20.886 17.989-68.776 58.721-69.257 59.13a1.999 1.999 0 0 1-2.819-.228 1.999 1.999 0 0 1 .228-2.819c.481-.409 48.361-41.133 69.238-59.114 13.513-11.639 53.93-7.207 55.644-7.014a2.001 2.001 0 0 1 1.729 1.559l24.353 111.008a2.002 2.002 0 0 1-.76 2.034l-53.215 39.556-1.812 1.642a1.992 1.992 0 0 1-1.342.518z" fill="#25242e"/><path d="M1024.454 321.149c28.883-32.066 43.232-27.092 50.512-20.774 15.02 13.033-1.769 38.002-10.983 47.301-14.604 14.74-27.768 12.095-32.577 6.81-7.364-8.093-8.295-21.709 10.428-42.011z" fill="#fff"/><path d="M1042.212 360.673c-.153 0-.304 0-.453-.005-4.816-.102-9.128-1.865-11.833-4.837-5.102-5.608-10.626-17.502 4.209-37.279l-8.789 4.386a2 2 0 0 1-2.379-3.128c22.547-25.031 40.483-32.076 53.309-20.946 4.214 3.656 6.46 8.41 6.675 14.128.528 14.006-11.248 29.733-17.548 36.092-9.429 9.517-17.742 11.59-23.192 11.59zm-.378-50.198a2 2 0 0 1 1.471 3.356c-15.208 16.491-18.812 30.084-10.419 39.31 1.94 2.132 5.289 3.451 8.958 3.529 4.659.114 12.023-1.625 20.718-10.4 6.832-6.896 16.834-21.407 16.393-33.127-.172-4.567-1.955-8.355-5.3-11.257-9.427-8.18-22.765-4.036-39.723 12.298l7.009-3.497c.285-.143.59-.211.892-.211z" fill="#25242e"/><path d="M1011.914 298.92c29.221-31.759 43.578-26.588 50.791-20.194 14.881 13.192-2.172 37.981-11.483 47.182-14.759 14.584-27.895 11.8-32.647 6.464-7.277-8.171-8.065-21.796 10.872-41.898z" fill="#fff"/><path d="M1029.543 338.677c-.232 0-.459-.004-.682-.011-4.814-.154-9.107-1.963-11.78-4.963-5.047-5.667-10.45-17.638 4.648-37.291l-8.947 4.31a2 2 0 0 1-2.34-3.156c22.814-24.794 40.844-31.636 53.589-20.335 4.175 3.7 6.371 8.478 6.525 14.197.379 14.011-11.563 29.611-17.93 35.903-9.396 9.286-17.632 11.345-23.085 11.346zm-.097-50.202a2 2 0 0 1 1.457 3.371c-15.382 16.33-19.129 29.884-10.834 39.197 1.917 2.152 5.252 3.508 8.92 3.625 4.664.153 12.041-1.499 20.828-10.183 6.904-6.821 17.06-21.226 16.743-32.949-.124-4.569-1.867-8.376-5.18-11.313-9.386-8.325-22.82-4.31-40.003 11.919l7.204-3.47c.278-.134.575-.198.867-.198z" fill="#25242e"/><path d="M991.679 262.409c31.011-22.718 51.646-15.545 58.423-8.69 13.981 14.141-4.664 37.756-14.56 46.325-15.686 13.583-28.61 9.941-33.002 4.304-6.725-8.631-6.615-22.279 13.603-41.093l-24.464-.847z" fill="#fff"/><path d="M1014.529 311.407c-.76 0-1.473-.038-2.138-.104-4.794-.47-8.959-2.557-11.429-5.726-5.216-6.696-10.358-21.288 13.818-43.786a1.998 1.998 0 1 1 2.724 2.928c-16.423 15.283-21.052 28.562-13.388 38.399 1.772 2.274 5.01 3.846 8.663 4.204 4.628.443 12.112-.703 21.452-8.79 8.166-7.072 20.469-22.816 18.715-34.961a2.001 2.001 0 0 1 1.694-2.266 2.007 2.007 0 0 1 2.265 1.693c1.995 13.819-10.901 30.629-20.056 38.557-9.133 7.908-16.9 9.851-22.322 9.851z" fill="#25242e"/><path d="M972.131 242.179c31.917-40.653 78.604-50.47 104.952-43.357 22.804 6.157 23.527 32.503-4.408 35.229-7.376.72-30.045-6.452-51.585 24.991-11.123 16.236-64.918 3.465-48.959-16.863z" fill="#fff"/><path d="M1021.088 261.042a2 2 0 0 1-1.648-3.13c18.827-27.482 39.109-26.427 48.854-25.92 1.712.089 3.19.163 4.188.069 13.548-1.322 18.909-8.19 19.408-14.177.624-7.482-5.679-14.526-15.328-17.132-27.746-7.491-73.223 4.916-102.857 42.661a1.994 1.994 0 0 1-.27.281l-6.591 5.664a2 2 0 1 1-2.607-3.033l6.443-5.537c18.589-23.604 40.354-34.829 55.354-40.089 18.158-6.365 36.954-7.756 51.571-3.809 11.545 3.116 19.058 11.886 18.271 21.325-.633 7.594-7.009 16.264-23.006 17.825-1.294.128-2.912.042-4.783-.055-9.709-.509-27.787-1.446-45.347 24.185a1.998 1.998 0 0 1-1.652.87z" fill="#25242e"/><path d="M1019.901 263.451a2 2 0 0 1-1.715-3.025c4.617-7.736 9.633-13.678 15.334-18.162a2 2 0 1 1 2.473 3.145c-5.309 4.176-10.01 9.759-14.372 17.068a1.998 1.998 0 0 1-1.719.975z" fill="#25242e"/><path d="M999.316 306.921c2.849-1.707 23.879-14.484 45.675-30.528s11.749-41.049-10.648-34.358c-22.398 6.692-53.533 25.589-74.274 39.285l18.768 63.907c17.291-6.148 23.475-30.221 20.479-38.306 2.849-1.707 23.879-14.484 45.675-30.528" fill="#fff"/><path d="M999.318 308.921a2 2 0 0 1-1.03-3.716c.918-.55 22.763-13.674 45.518-30.423 11.292-8.312 13.117-18.509 9.918-24.927-3.084-6.187-10.292-8.447-18.809-5.904-23.243 6.944-56.18 27.439-73.744 39.038a2 2 0 1 1-2.204-3.337c17.749-11.721 51.067-32.441 74.803-39.532 10.346-3.091 19.584.029 23.534 7.952 3.946 7.917 2.037 20.243-11.127 29.932-22.905 16.86-44.908 30.079-45.833 30.634a1.998 1.998 0 0 1-1.026.284z" fill="#25242e"/><path d="M978.837 347.228a2.001 2.001 0 0 1-.67-3.886c6.656-2.366 12.376-8.067 16.107-16.052 3.788-8.106 4.458-16.188 3.166-19.675a2 2 0 0 1 .848-2.411c.918-.55 22.763-13.674 45.518-30.423a2 2 0 1 1 2.371 3.221c-20.02 14.736-39.35 26.691-44.521 29.839 1.161 5.35-.281 13.702-3.758 21.143-4.188 8.962-10.719 15.399-18.391 18.128a2.015 2.015 0 0 1-.67.116z" fill="#25242e"/><path d="M285.307 573.596s6.221-19.364 12.881-23.565c12.759-8.046 33.266-32.707 34.585-3.236 2.674 59.733-16.597 124.162-16.597 124.162l-32.415-3.277c-6.242-44.316-4.486-73.048 1.546-94.085z" fill="#fff"/><path d="M316.178 672.958a1.999 1.999 0 0 1-1.917-2.573c.191-.641 19.143-64.805 16.515-123.499a2 2 0 0 1 1.909-2.088c1.093-.033 2.038.806 2.087 1.908 2.659 59.385-16.485 124.178-16.679 124.825a2 2 0 0 1-1.915 1.427z" fill="#25242e"/><path d="M285.307 573.596c-6.453-53.883 17.823-73.683 28.234-73.101 26.85 1.5 23.085 54.354 22.732 59.707-2.034 30.858-38.977 33.439-36.237-8.347z" fill="#fff"/><path d="M317.442 585.312c-.344 0-.687-.011-1.029-.033-10.196-.67-19.832-11.306-18.373-33.555a2 2 0 1 1 3.991.262c-1.278 19.492 6.434 28.762 14.644 29.302 7.817.497 16.648-6.748 17.602-21.218l.011-.164c.595-8.954 1.663-39.156-9.555-51.834-3.099-3.503-6.797-5.328-11.304-5.58-2.707-.141-7.638 1.608-12.748 7.053-5.608 5.976-18.138 24.155-13.389 63.813a2 2 0 1 1-3.972.477c-4.771-39.845 7.002-59.098 14.444-67.027 5.135-5.473 11.082-8.574 15.887-8.31 5.551.311 10.287 2.64 14.077 6.923 11.909 13.461 11.345 42.772 10.55 54.75l-.011.163c-1.085 16.464-11.343 24.979-20.827 24.979z" fill="#25242e"/><path d="M293.849 652.747c-12.288 6.836-16.954 17.773-16.463 28.181 1.292 27.354 31.812 27.855 38.203 27.447 24.973-1.596 29.917-33.542-5.812-34.789l-15.929-20.839z" fill="#fff"/><path d="M313.19 710.44c-5.769 0-19.488-.949-28.797-9.276-5.579-4.992-8.608-11.768-9.004-20.141-.593-12.567 5.781-23.51 17.488-30.024a2.004 2.004 0 0 1 2.562.533l15.36 20.096c19.455.983 26.528 10.883 26.647 19.173.127 8.806-7.445 18.657-21.729 19.57-.364.023-1.251.069-2.527.069zm-19.854-55.072c-9.38 5.819-14.445 15.014-13.952 25.466.343 7.262 2.926 13.099 7.676 17.349 8.247 7.377 21.732 8.624 28.402 8.196 11.816-.755 18.085-8.56 17.985-15.521-.096-6.667-6.371-14.668-23.738-15.273a2.001 2.001 0 0 1-1.519-.784z" fill="#25242e"/><path d="M288.913 633.664c-13.824 6.811-18.809 17.729-18.482 28.148.887 28.252 37.159 27.512 43.08 27.527 28.171.073 31.66-37.907-6.46-36.481l-18.139-19.194z" fill="#fff"/><path d="M313.589 691.339h-.63c-28.12 0-43.931-10.462-44.527-29.465-.235-7.484 1.999-21.334 19.597-30.004a2.002 2.002 0 0 1 2.337.42l17.522 18.542c17-.386 24.002 6.805 26.667 11.177 3.411 5.592 3.479 12.423.185 18.272-3.901 6.928-11.805 11.058-21.152 11.058zm-.577-4h.581c7.999 0 14.433-3.284 17.663-9.02 2.574-4.571 2.531-9.89-.115-14.228-2.257-3.701-8.367-9.815-24.015-9.235a1.973 1.973 0 0 1-1.528-.625l-17.107-18.103c-14.394 7.696-16.259 19.284-16.06 25.62.664 21.144 22.393 25.589 40.528 25.59h.054z" fill="#25242e"/><path d="M284.814 603.592c-15.168 6.789-20.772 17.704-20.248 28.119 1.577 31.327 41.985 27.774 47.347 27.597 30.908-1.019 34.702-37.858-7.152-36.492z" fill="#fff"/><path d="M305.588 661.485c-26.838 0-42.05-10.424-43.019-29.674-.64-12.713 7.17-23.663 21.428-30.045a1.995 1.995 0 0 1 2.205.385l19.344 18.644c21.693-.445 31.752 9.405 32.083 19.488.321 9.771-8.56 20.461-25.649 21.024-.253.008-.586.024-.991.044-1.849.089-3.651.134-5.401.134zm-21.176-55.504c-16.224 7.771-18.165 19.334-17.848 25.629 1.157 22.986 24.694 26.688 44.232 25.746.43-.021.784-.038 1.052-.047 14.493-.478 22.041-9.062 21.784-16.896-.27-8.224-9.284-16.245-28.805-15.599a1.953 1.953 0 0 1-1.453-.559l-18.962-18.275z" fill="#25242e"/><path d="M285.307 573.596c-15.168 6.789-20.772 17.704-20.248 28.119 1.577 31.327 41.985 27.774 47.347 27.597 30.908-1.019 34.702-37.858-7.152-36.492z" fill="#fff"/><path d="M306.081 631.489c-26.838 0-42.049-10.424-43.019-29.674-.64-12.713 7.17-23.663 21.428-30.044a2 2 0 1 1 1.634 3.651c-17.347 7.764-19.392 19.743-19.067 26.192 1.158 22.987 24.693 26.688 44.232 25.746.43-.021.784-.038 1.052-.047 14.494-.478 22.041-9.062 21.784-16.896-.27-8.224-9.283-16.254-28.805-15.599-1.117.069-2.028-.829-2.064-1.934s.83-2.028 1.934-2.064c22.281-.75 32.598 9.252 32.933 19.465.321 9.772-8.56 20.462-25.65 21.025-.253.008-.586.024-.991.044-1.849.089-3.651.134-5.401.134z" fill="#25242e"/></svg></g><g transform="translate(413.0 518.0) rotate(0.0 486.5 374.0) scale(0.9910499935322019 0.9914099891183475)"><svg width="981.787" height="754.481" viewBox="0 0 981.787 754.481"><rect fill="#fff" height="750.481" rx="55.262" width="977.787" x="2" y="2"/><path d="M924.525 754.482H57.262C25.688 754.482 0 728.794 0 697.219V90.672a2 2 0 0 1 4 0v606.547c0 29.369 23.893 53.263 53.262 53.263h867.263c29.369 0 53.262-23.894 53.262-53.263V90.672a2 2 0 0 1 4 0v606.547c0 31.575-25.688 57.263-57.262 57.263z" fill="#25242e"/><path d="M924.525 2H57.262C26.742 2 2 26.742 2 57.262v33.411h977.787V57.262C979.787 26.742 955.045 2 924.525 2z" fill="#b153e0"/><path d="M979.787 92.672H2a2 2 0 0 1-2-2v-33.41C0 25.688 25.688 0 57.262 0h867.263c31.575 0 57.262 25.688 57.262 57.262v33.41a2 2 0 0 1-2 2zM4 88.672h973.787v-31.41C977.787 27.893 953.894 4 924.525 4H57.262C27.893 4 4 27.893 4 57.262z" fill="#b153e0"/><g fill="#25242e"><path d="M96.649 74.098a1.992 1.992 0 0 1-1.414-.586L51.469 29.746a2 2 0 1 1 2.828-2.828l43.765 43.766a2 2 0 0 1-1.414 3.414z"/><path d="M52.883 74.098a2 2 0 0 1-1.414-3.414l43.765-43.766a2 2 0 1 1 2.828 2.828L54.297 73.512a1.99 1.99 0 0 1-1.414.586zm274.883 63.474a2 2 0 0 1-2-2v-43a2 2 0 0 1 4 0v43a2 2 0 0 1-2 2zm0 491.922a2 2 0 0 1-2-2v-81.987a2 2 0 0 1 4 0v81.987a2 2 0 0 1-2 2zm0-163.975a2 2 0 0 1-2-2v-81.987a2 2 0 0 1 4 0v81.987a2 2 0 0 1-2 2zm0-163.974a2 2 0 0 1-2-2v-81.987a2 2 0 0 1 4 0v81.987a2 2 0 0 1-2 2zm0 452.936a2 2 0 0 1-2-2v-43a2 2 0 0 1 4 0v43a2 2 0 0 1-2 2zm325-616.909a2 2 0 0 1-2-2v-43a2 2 0 0 1 4 0v43a2 2 0 0 1-2 2zm0 491.922a2 2 0 0 1-2-2v-81.987a2 2 0 0 1 4 0v81.987a2 2 0 0 1-2 2zm0-163.975a2 2 0 0 1-2-2v-81.987a2 2 0 0 1 4 0v81.987a2 2 0 0 1-2 2zm0-163.974a2 2 0 0 1-2-2v-81.987a2 2 0 0 1 4 0v81.987a2 2 0 0 1-2 2zm0 452.936a2 2 0 0 1-2-2v-43a2 2 0 0 1 4 0v43a2 2 0 0 1-2 2z"/></g></svg></g><g transform="translate(362.0 606.0) rotate(0.0 38.0 105.5) scale(0.9985153653121017 0.9954614506373785)"><svg width="76.113" height="211.962" viewBox="0 0 76.113 211.962"><path d="M22.774 75.113s6.221-19.364 12.881-23.565c12.759-8.046 33.266-32.707 34.585-3.236 2.674 59.733-16.597 124.162-16.597 124.162l-32.415-3.277c-6.242-44.316-4.486-73.048 1.546-94.085z" fill="#fff"/><path d="M53.644 174.476a1.999 1.999 0 0 1-1.917-2.573c.191-.641 19.142-64.805 16.515-123.5a2 2 0 1 1 3.996-.178c2.658 59.385-16.485 124.177-16.679 124.825a2 2 0 0 1-1.915 1.427z" fill="#25242e"/><path d="M22.774 75.113C16.321 21.23 40.596 1.431 51.008 2.012c26.85 1.5 23.085 54.354 22.732 59.707-2.034 30.858-38.977 33.439-36.237-8.347z" fill="#fff"/><path d="M54.909 86.83c-.344 0-.688-.011-1.029-.034-10.196-.67-19.832-11.306-18.373-33.555a2.01 2.01 0 0 1 2.126-1.865 2 2 0 0 1 1.865 2.126c-1.278 19.493 6.434 28.762 14.644 29.302 7.811.522 16.648-6.747 17.602-21.217l.011-.165c.595-8.955 1.663-39.157-9.555-51.834-3.099-3.503-6.797-5.328-11.304-5.58-2.692-.151-7.637 1.606-12.748 7.052-5.608 5.975-18.139 24.155-13.389 63.814a2 2 0 0 1-3.972.476c-4.772-39.844 7.001-59.097 14.444-67.027C40.367 2.853 46.305-.261 51.119.015c5.551.31 10.287 2.64 14.077 6.923 11.909 13.46 11.345 42.772 10.55 54.75l-.011.163C74.65 78.315 64.392 86.83 54.908 86.83z" fill="#25242e"/><path d="M31.316 154.264c-12.288 6.836-16.954 17.773-16.463 28.181 1.292 27.354 31.812 27.855 38.203 27.447 24.973-1.596 29.917-33.542-5.812-34.789l-15.929-20.839z" fill="#fff"/><path d="M50.659 211.958c-5.767 0-19.491-.948-28.801-9.278-5.579-4.991-8.608-11.767-9.003-20.14-.593-12.566 5.781-23.51 17.488-30.023a2 2 0 0 1 2.561.533l15.36 20.096c19.455.983 26.528 10.883 26.647 19.172.127 8.806-7.445 18.657-21.729 19.57-.363.023-1.25.069-2.524.069zm-19.857-55.072c-9.38 5.819-14.445 15.013-13.952 25.466.343 7.262 2.925 13.098 7.675 17.348 8.246 7.377 21.728 8.625 28.403 8.197 11.816-.755 18.085-8.56 17.984-15.521-.097-6.667-6.371-14.667-23.738-15.273a2.001 2.001 0 0 1-1.519-.784l-14.854-19.433z" fill="#25242e"/><path d="M26.379 135.181C12.555 141.992 7.57 152.91 7.897 163.329c.887 28.252 37.159 27.512 43.08 27.527 28.171.073 31.66-37.907-6.46-36.481l-18.139-19.194z" fill="#fff"/><path d="M51.056 192.856h-.63c-28.12 0-43.931-10.462-44.527-29.464-.235-7.484 1.999-21.334 19.597-30.004a1.998 1.998 0 0 1 2.337.42l17.522 18.542c17-.392 24.002 6.806 26.667 11.177 3.41 5.591 3.479 12.422.185 18.272-3.901 6.927-11.805 11.057-21.152 11.057zm-.577-4h.581c7.999 0 14.433-3.285 17.663-9.02 2.574-4.57 2.531-9.889-.114-14.227-2.257-3.7-8.37-9.819-24.016-9.235a1.981 1.981 0 0 1-1.528-.625l-17.107-18.103c-14.394 7.697-16.259 19.284-16.06 25.62.664 21.145 22.393 25.59 40.528 25.59h.054z" fill="#25242e"/><path d="M22.281 105.109c-15.168 6.789-20.772 17.704-20.248 28.119 1.577 31.327 41.985 27.774 47.347 27.597 30.908-1.019 34.702-37.858-7.152-36.492z" fill="#fff"/><path d="M43.054 163.002c-26.838 0-42.049-10.423-43.018-29.673-.64-12.712 7.17-23.664 21.428-30.045a2 2 0 0 1 2.205.386l19.344 18.642c21.716-.436 31.753 9.406 32.083 19.488.321 9.771-8.56 20.461-25.649 21.024-.253.008-.586.024-.991.044a112.42 112.42 0 0 1-5.401.134zM21.879 107.5c-16.224 7.769-18.165 19.333-17.848 25.628 1.157 22.986 24.691 26.683 44.232 25.746.43-.021.783-.038 1.052-.047 14.493-.478 22.041-9.062 21.784-16.896-.27-8.223-9.277-16.238-28.805-15.599a2.011 2.011 0 0 1-1.453-.559z" fill="#25242e"/><path d="M22.774 75.113C7.606 81.902 2.002 92.817 2.526 103.232c1.577 31.327 41.985 27.774 47.347 27.597 30.908-1.019 34.702-37.858-7.152-36.492z" fill="#fff"/><path d="M43.547 133.006c-26.838 0-42.049-10.423-43.019-29.673-.64-12.712 7.17-23.663 21.428-30.045a2.001 2.001 0 0 1 1.634 3.652C6.243 84.704 4.198 96.683 4.523 103.132c1.157 22.986 24.687 26.684 44.232 25.746.43-.021.783-.038 1.052-.047 14.493-.478 22.041-9.062 21.784-16.896-.269-8.223-9.299-16.228-28.804-15.598a2 2 0 0 1-.13-3.998c22.305-.725 32.598 9.253 32.933 19.465.32 9.771-8.561 20.461-25.65 21.024-.253.008-.586.024-.991.044a112.42 112.42 0 0 1-5.401.134z" fill="#25242e"/></svg></g><g transform="translate(413.0 182.0) rotate(0.0 535.5 459.5) scale(0.9996677108262799 0.9996769270431645)"><svg width="1071.356" height="919.297" viewBox="0 0 1071.356 919.297"><path d="M508.912 893.744 173.54 723.633 0 886.905l.008-31.586 169.534-159.504 326.347 165.533L734.822 179.23l289.556-147.723 10.453 20.488L753.483 195.53z" fill="#25242e"/><circle cx="171.541" cy="709.724" fill="#fff" r="39.751"/><path d="M171.541 751.476c-23.021 0-41.751-18.729-41.751-41.752s18.729-41.751 41.751-41.751 41.751 18.729 41.751 41.751-18.729 41.752-41.751 41.752zm0-79.503c-20.816 0-37.751 16.935-37.751 37.751s16.935 37.752 37.751 37.752 37.751-16.936 37.751-37.752-16.935-37.751-37.751-37.751z" fill="#25242e"/><circle cx="744.153" cy="187.38" fill="#fff" r="39.751"/><path d="M744.152 229.131c-23.021 0-41.751-18.729-41.751-41.751s18.729-41.752 41.751-41.752 41.751 18.729 41.751 41.752-18.729 41.751-41.751 41.751zm0-79.503c-20.816 0-37.751 16.936-37.751 37.752s16.935 37.751 37.751 37.751 37.751-16.935 37.751-37.751-16.935-37.752-37.751-37.752z" fill="#25242e"/><circle cx="1029.605" cy="41.751" fill="#fff" r="39.751"/><path d="M1029.605 83.503c-23.022 0-41.751-18.729-41.751-41.751S1006.583 0 1029.605 0s41.751 18.729 41.751 41.752-18.729 41.751-41.751 41.751zm0-79.503c-20.816 0-37.751 16.936-37.751 37.752s16.935 37.751 37.751 37.751 37.751-16.935 37.751-37.751S1050.421 4 1029.605 4z" fill="#25242e"/><circle cx="502.401" cy="877.546" fill="#fff" r="39.751"/><path d="M502.401 919.297c-23.022 0-41.751-18.729-41.751-41.751s18.729-41.752 41.751-41.752 41.751 18.729 41.751 41.752-18.729 41.751-41.751 41.751zm0-79.503c-20.816 0-37.751 16.936-37.751 37.752s16.935 37.751 37.751 37.751 37.751-16.935 37.751-37.751-16.935-37.752-37.751-37.752z" fill="#25242e"/></svg></g><g transform="translate(1055.0 346.0) rotate(0.0 51.0 55.0) scale(1.0094012864918358 1.0156502469876736)"><svg width="101.05" height="108.305" viewBox="0 0 101.05 108.305"><path d="M41.247 67.999c2.849-1.707 23.879-14.484 45.675-30.528 21.797-16.044 11.75-41.05-10.648-34.358C53.876 9.804 22.741 28.702 2 42.398l18.768 63.907c17.291-6.148 23.475-30.221 20.479-38.306 2.849-1.707 23.879-14.484 45.675-30.528" fill="#fff"/><g fill="#25242e"><path d="M41.249 69.999a2 2 0 0 1-1.03-3.717c.919-.55 22.769-13.678 45.518-30.423 11.291-8.312 13.117-18.508 9.917-24.927-3.084-6.187-10.292-8.449-18.808-5.904-23.241 6.945-56.179 27.44-73.744 39.039a2 2 0 1 1-2.204-3.338C18.647 29.009 51.967 8.288 75.701 1.196c10.348-3.092 19.584.03 23.533 7.953 3.946 7.917 2.037 20.243-11.126 29.933C65.208 55.938 43.2 69.16 42.275 69.715a1.99 1.99 0 0 1-1.026.285z"/><path d="M20.768 108.306a1.999 1.999 0 0 1-.67-3.885c6.655-2.367 12.375-8.067 16.106-16.051 3.789-8.106 4.459-16.188 3.167-19.676a2 2 0 1 1 3.751-1.389c1.912 5.16.558 14.519-3.293 22.76-4.188 8.961-10.719 15.398-18.391 18.126a1.99 1.99 0 0 1-.67.116z"/></g></svg></g><g transform="translate(1201.0 1105.0) rotate(0.0 198.5 240.0) scale(0.9955713375764232 0.9972451103825681)"><svg width="398.766" height="481.326" viewBox="0 0 398.766 481.326"><path d="M390.127 479.325H65.361V383.86h324.766z" fill="#dda6ff"/><path d="M390.128 481.326H65.362a2 2 0 0 1-2-2V383.86a2 2 0 0 1 2-2h324.766a2 2 0 0 1 2 2v95.466a2 2 0 0 1-2 2zm-322.766-4h320.766V385.86H67.362z" fill="#dda6ff"/><path d="M360.127 383.861H35.361v-95.465h324.766z" fill="#dda6ff"/><path d="M360.128 385.86H35.362a2 2 0 0 1-2-2v-95.465a2 2 0 0 1 2-2h324.766a2 2 0 0 1 2 2v95.465a2 2 0 0 1-2 2zm-322.766-4h320.766v-91.465H37.362v91.465z" fill="#dda6ff"/><path d="M396.766 288.396H72v-95.465h324.766z" fill="#dda6ff"/><path d="M396.766 290.395H72a2 2 0 0 1-2-2V192.93a2 2 0 0 1 2-2h324.766a2 2 0 0 1 2 2v95.465a2 2 0 0 1-2 2zm-322.766-4h320.766V194.93H74z" fill="#dda6ff"/><path d="M366.766 192.93H42V97.465h324.766z" fill="#dda6ff"/><path d="M366.766 194.931H42a2 2 0 0 1-2-2V97.465a2 2 0 0 1 2-2h324.766a2 2 0 0 1 2 2v95.466a2 2 0 0 1-2 2zm-322.766-4h320.766V99.465H44z" fill="#dda6ff"/><path d="M326.766 97.465H2V2h324.766z" fill="#dda6ff"/><path d="M326.766 99.465H2a2 2 0 0 1-2-2V2a2 2 0 0 1 2-2h324.766a2 2 0 0 1 2 2v95.465a2 2 0 0 1-2 2zM4 95.465h320.766V4H4z" fill="#dda6ff"/><g fill="#25242e"><path d="M366.766 99.465H106.808a2 2 0 0 1 0-4h259.958a2 2 0 0 1 0 4zm10.979 95.466h-49.83a2 2 0 0 1 0-4h49.83a2 2 0 0 1 0 4zm-77.022 0H72a2 2 0 0 1 0-4h228.723a2 2 0 0 1 0 4zm65.405 95.464H62.894a2 2 0 0 1 0-4h303.234a2 2 0 0 1 0 4zm-86.085 95.465H65.362a2 2 0 0 1 0-4h214.681a2 2 0 0 1 0 4z"/><path d="M113.574 481.326a2 2 0 0 1-2-2V383.86a2 2 0 0 1 4 0v95.466a2 2 0 0 1-2 2zm259.277-95.466h-62.17a2 2 0 0 1 0-4h62.17a2 2 0 0 1 0 4zM226.81 481.326a2 2 0 0 1-2-2V383.86a2 2 0 0 1 4 0v95.466a2 2 0 0 1-2 2z"/><path d="M342.681 481.091a2 2 0 0 1-2-2v-95.23a2 2 0 0 1 4 0v95.23a2 2 0 0 1-2 2zM113.574 290.395a2 2 0 0 1-2-2V193.86a2 2 0 0 1 4 0v94.535a2 2 0 0 1-2 2zm113.236 0a2 2 0 0 1-2-2V193.86a2 2 0 0 1 4 0v94.535a2 2 0 0 1-2 2zm115.871 0a2 2 0 0 1-2-2V193.86a2 2 0 0 1 4 0v94.535a2 2 0 0 1-2 2zm-225.871-191a2 2 0 0 1-2-2V2a2 2 0 0 1 4 0v95.395a2 2 0 0 1-2 2zm115.871 0a2 2 0 0 1-2-2V2a2 2 0 1 1 4 0v95.395a2 2 0 0 1-2 2zm25.383 286.465a2 2 0 0 1-2-2v-95.465a2 2 0 0 1 4 0v95.465a2 2 0 0 1-2 2zm-119 0a2 2 0 0 1-2-2v-95.465a2 2 0 0 1 4 0v95.465a2 2 0 0 1-2 2zm149-191a2 2 0 0 1-2-2V97.395a2 2 0 0 1 4 0v95.465a2 2 0 0 1-2 2zm-119 0a2 2 0 0 1-2-2V97.395a2 2 0 0 1 4 0v95.465a2 2 0 0 1-2 2zm-110 0a2 2 0 0 1-2-2V97.395a2 2 0 0 1 4 0v95.465a2 2 0 0 1-2 2z"/><path d="M72 99.465H29.957a2 2 0 0 1 0-4H72a2 2 0 0 1 0 4z"/></g></svg></g><g transform="translate(963.0 1291.0) rotate(0.0 160.0 147.0) scale(0.9969623802476828 0.9988652347333301)"><svg width="320.975" height="294.334" viewBox="0 0 320.975 294.334"><path d="m310.392 74.938-44.354-56.08-80.335 63.065c-16.758 8.709-33.867 19.693-50.536 32.778-16.668 13.084-31.4 27.097-43.839 41.308l-80.745 63.388 44.354 56.079c26.232 33.417 104.684 15.614 175.226-39.763s106.462-127.358 80.229-160.774z" fill="#dda6ff"/><ellipse cx="138.31" cy="119.127" fill="#dda6ff" rx="162.383" ry="76.922" transform="matrix(.7865795 -.61748901 .61748901 .7865795 -44.042 110.828)"/><path d="M97.64 294.358c-19.83 0-35.121-5.985-44.276-17.648L9.016 220.64c-13.198-16.842-11.908-43.208 3.601-74.288 15.283-30.626 42.614-62.341 76.96-89.303S161.22 11.067 194.599 3.493C228.491-4.199 254.42.82 267.612 17.624l.016.021 44.334 56.053.004.006c13.191 16.803 11.91 43.183-3.608 74.28-15.283 30.625-42.614 62.34-76.96 89.303-34.345 26.962-71.643 45.982-105.021 53.556-10.37 2.354-19.995 3.517-28.737 3.517zm-85.505-76.223.019.023 44.353 56.077c12.188 15.525 36.687 20.038 68.985 12.706 32.813-7.446 69.547-26.198 103.437-52.802 69.562-54.608 105.4-125.471 79.891-157.966l-44.348-56.071-.021-.026C238.928-12.394 161.597 5.597 92.047 60.195 58.158 86.799 31.22 118.03 16.196 148.137c-14.781 29.62-16.223 54.477-4.061 69.998z" fill="#dda6ff"/><g fill="#25242e"><path d="M53.285 238.279c-19.83 0-35.121-5.985-44.276-17.647a2 2 0 1 1 3.146-2.47c25.508 32.493 102.854 14.506 172.417-40.102 69.562-54.607 105.401-125.471 79.892-157.966-6.406-8.161-16.192-13.285-29.085-15.23a2 2 0 0 1 .597-3.955c13.935 2.103 24.578 7.727 31.635 16.716 13.191 16.804 11.91 43.184-3.608 74.28-15.283 30.626-42.614 62.341-76.96 89.303-34.345 26.962-71.643 45.982-105.021 53.556-10.37 2.354-19.995 3.517-28.737 3.517zm130.24-227.806a2 2 0 0 1-.571-3.917c10.057-2.997 19.718-4.992 28.715-5.93a2 2 0 1 1 .415 3.979c-8.751.913-18.167 2.859-27.987 5.785a1.996 1.996 0 0 1-.572.084zm74.156 203.154a2 2 0 0 1-1.398-3.43c25.13-24.563 44.237-51.51 53.801-75.878 9.539-24.306 9.09-44.956-1.265-58.146l-18.628-23.552a2.001 2.001 0 0 1 3.138-2.482l18.633 23.558c22.931 29.211 1.183 86.516-52.883 139.36-.389.38-.894.57-1.398.57z"/><path d="M58.574 218.317c-15.542 0-27.425-4.602-34.508-13.625-10.775-13.727-8.975-35.82 5.069-62.209 13.778-25.888 37.764-53.019 67.539-76.393s61.824-40.232 90.244-47.47c28.97-7.377 50.859-3.881 61.634 9.846 10.776 13.727 8.976 35.82-5.069 62.209-13.778 25.889-37.764 53.019-67.539 76.393S114.119 207.3 85.7 214.538c-9.926 2.528-19.024 3.779-27.126 3.779zM214.106 18.821c-7.762 0-16.549 1.216-26.201 3.675-27.892 7.103-59.415 23.702-88.761 46.74s-52.956 49.718-66.478 75.126c-13.255 24.907-15.192 45.455-5.454 57.86 9.738 12.406 30.162 15.403 57.501 8.439 27.892-7.103 59.414-23.702 88.761-46.74s52.956-49.718 66.478-75.126c13.255-24.906 15.192-45.455 5.454-57.86-6.3-8.026-17.075-12.114-31.299-12.114zM106.399 293.562c-.601 0-1.195-.27-1.589-.784L62.427 237.47a2 2 0 1 1 3.175-2.433l42.383 55.308a2 2 0 0 1-1.586 3.217zm85.266-29.685c-.602 0-1.196-.27-1.59-.785l-42.671-55.754a2 2 0 0 1 3.177-2.431l42.671 55.754a2 2 0 0 1-1.587 3.216zm74.955-59.348c-.602 0-1.196-.27-1.59-.785l-42.562-55.641a2 2 0 0 1 3.177-2.431l42.562 55.641a2 2 0 0 1-1.587 3.216zm49.795-81.241a1.998 1.998 0 0 1-1.597-.794l-43.875-58.056a2 2 0 0 1 3.192-2.412l43.875 58.056a2 2 0 0 1-1.595 3.206z"/></g></svg></g></svg>